<svg width="93" height="93" viewBox="0 0 93 93" fill="none" xmlns="http://www.w3.org/2000/svg">
<g filter="url(#filter0_di_2_46)">
<circle cx="44.9158" cy="43.9848" r="40" fill="url(#paint0_linear_2_46)"/>
<circle cx="44.9158" cy="43.9848" r="40" fill="url(#paint1_linear_2_46)"/>
</g>
<path d="M37 33.3333V54.6667C36.9999 54.9039 37.0632 55.1369 37.1832 55.3415C37.3032 55.5462 37.4756 55.7151 37.6827 55.8309C37.8898 55.9466 38.124 56.005 38.3612 56.0001C38.5984 55.9951 38.8299 55.927 39.032 55.8027L56.3653 45.136C56.5595 45.0167 56.7198 44.8497 56.831 44.6508C56.9422 44.4519 57.0006 44.2279 57.0006 44C57.0006 43.7721 56.9422 43.5481 56.831 43.3492C56.7198 43.1503 56.5595 42.9833 56.3653 42.864L39.032 32.1973C38.8299 32.073 38.5984 32.0049 38.3612 31.9999C38.124 31.995 37.8898 32.0534 37.6827 32.1691C37.4756 32.2849 37.3032 32.4538 37.1832 32.6585C37.0632 32.8631 36.9999 33.0961 37 33.3333Z" fill="#131222"/>
<defs>
<filter id="filter0_di_2_46" x="0.915833" y="0.984848" width="92" height="92" filterUnits="userSpaceOnUse" color-interpolation-filters="sRGB">
<feFlood flood-opacity="0" result="BackgroundImageFix"/>
<feColorMatrix in="SourceAlpha" type="matrix" values="0 0 0 0 0 0 0 0 0 0 0 0 0 0 0 0 0 0 127 0" result="hardAlpha"/>
<feOffset dx="2" dy="3"/>
<feGaussianBlur stdDeviation="3"/>
<feComposite in2="hardAlpha" operator="out"/>
<feColorMatrix type="matrix" values="0 0 0 0 0 0 0 0 0 0 0 0 0 0 0 0 0 0 0.25 0"/>
<feBlend mode="normal" in2="BackgroundImageFix" result="effect1_dropShadow_2_46"/>
<feBlend mode="normal" in="SourceGraphic" in2="effect1_dropShadow_2_46" result="shape"/>
<feColorMatrix in="SourceAlpha" type="matrix" values="0 0 0 0 0 0 0 0 0 0 0 0 0 0 0 0 0 0 127 0" result="hardAlpha"/>
<feMorphology radius="5" operator="erode" in="SourceAlpha" result="effect2_innerShadow_2_46"/>
<feOffset/>
<feComposite in2="hardAlpha" operator="arithmetic" k2="-1" k3="1"/>
<feColorMatrix type="matrix" values="0 0 0 0 0 0 0 0 0 0 0 0 0 0 0 0 0 0 0.13 0"/>
<feBlend mode="normal" in2="shape" result="effect2_innerShadow_2_46"/>
</filter>
<linearGradient id="paint0_linear_2_46" x1="31.2968" y1="3.98485" x2="63.7235" y2="79.0976" gradientUnits="userSpaceOnUse">
<stop stop-color="#FBCE36"/>
<stop offset="0.5" stop-color="#FBCE36"/>
<stop offset="0.5" stop-color="#E59735"/>
<stop offset="0.5" stop-color="#E59735"/>
<stop offset="1" stop-color="#E59735"/>
</linearGradient>
<linearGradient id="paint1_linear_2_46" x1="79.322" y1="24.2438" x2="13.2611" y2="67.1525" gradientUnits="userSpaceOnUse">
<stop stop-color="#FBCE36" stop-opacity="0.2"/>
<stop offset="1" stop-color="#FBCE36"/>
</linearGradient>
</defs>
</svg>
